<?xml version="1.0" standalone="no"?>
<!DOCTYPE svg PUBLIC "-//W3C//DTD SVG 20010904//EN"
 "http://www.w3.org/TR/2001/REC-SVG-20010904/DTD/svg10.dtd">
<svg version="1.0" xmlns="http://www.w3.org/2000/svg"
 width="225.000000pt" height="225.000000pt" viewBox="0 0 225.000000 225.000000"
 preserveAspectRatio="xMidYMid meet">

<g transform="translate(0.000000,225.000000) scale(0.100000,-0.100000)"
fill="#000000" stroke="none">
<path d="M730 2007 c-91 -31 -153 -70 -219 -137 -65 -66 -113 -150 -136 -235
-19 -74 -19 -203 0 -275 36 -137 133 -265 249 -330 66 -37 68 -32 -36 -70
-158 -58 -331 -218 -415 -385 -35 -68 -73 -204 -80 -281 l-6 -74 47 0 46 0 0
38 c0 20 7 66 14 102 53 251 232 450 481 537 73 25 93 27 220 27 126 0 148 -2
220 -27 112 -37 197 -90 284 -177 121 -120 192 -268 207 -430 l7 -70 43 0 44
0 0 40 c0 66 -29 190 -64 270 -85 201 -242 353 -447 436 l-80 32 57 33 c302
172 356 597 109 844 -64 64 -147 113 -234 139 -83 24 -230 21 -311 -7z m304
-87 c132 -41 247 -158 288 -293 26 -87 22 -214 -10 -297 -43 -110 -142 -209
-252 -252 -83 -32 -210 -36 -297 -10 -186 57 -313 230 -313 427 0 304 291 515
584 425z"/>
<path d="M1798 1253 l-3 -138 -137 -3 -138 -3 0 -39 0 -39 138 -3 137 -3 3
-137 3 -138 44 0 45 0 0 141 0 140 135 -3 135 -3 0 45 0 45 -135 -3 -135 -3 0
140 0 141 -45 0 -44 0 -3 -137z"/>
</g>
</svg>
